<svg xmlns="http://www.w3.org/2000/svg" viewBox="0 0 48.57 48.16"><defs><style>.a{opacity:0.45;}.b{fill:#fbb03b;}.c{opacity:0.8;}.d{fill:#fff;}</style></defs><g class="a"><path class="b" d="M48,40.17,36.79,28.6c-.8-.83-1.8-1.16-2.24-.73s-1.44.09-2.24-.74L32.15,27a16.77,16.77,0,1,0-2.89,3l.07.08c.8.82,1.1,1.84.66,2.26s-.14,1.44.66,2.26L41.84,46.11a2.1,2.1,0,0,0,3,0l3.13-3A2.09,2.09,0,0,0,48,40.17ZM27,25A11.59,11.59,0,1,1,27,8.62,11.6,11.6,0,0,1,27,25Z"/></g><g class="c"><path class="d" d="M46,41.58,34.83,30c-.8-.83-1.8-1.16-2.24-.73s-1.44.09-2.24-.74l-.16-.17a16.77,16.77,0,1,0-2.89,3l.07.07c.8.83,1.1,1.85.66,2.27s-.14,1.44.67,2.26L39.88,47.52a2.1,2.1,0,0,0,3,0l3.14-3A2.09,2.09,0,0,0,46,41.58ZM25,26.41A11.58,11.58,0,1,1,25,10,11.59,11.59,0,0,1,25,26.41Z"/></g></svg>