<svg xmlns="http://www.w3.org/2000/svg" viewBox="0 0 140.68 19.02"><defs><style>.a{opacity:0.45;}.b{fill:#fbb03b;}.c{opacity:0.8;}.d{fill:#fff;}</style></defs><g class="a"><path class="b" d="M18.73.28,17.05,3.66h-10v3h6.3V10H7.06v6.35H3.66V.28Z"/><path class="b" d="M23.14,3h7.78L29.24,6.31H24.77l-.41.41v9.66H21V5.09Z"/><path class="b" d="M33.22,5.09,35.31,3H45.7l2.14,2.14v9.22l-2.09,2.07H35.31l-2.09-2.16ZM36.92,13h7.24l.3-.3v-6l-.3-.3H36.92l-.35.34v6Z"/><path class="b" d="M61.37,13l.34-.37v-1l-.16-.14a.6.6,0,0,1-.16-.16H52.51L50.42,9.2V5.09L52.51,3H65.37L63.69,6.31H54.14l-.34.36v1a.83.83,0,0,0,.16.13.89.89,0,0,1,.16.17H63l2.14,2.13v4.14L63,16.38H50.14L51.8,13Z"/><path class="b" d="M67.67,6.31V3h14.9L80.89,6.31H76.06V16.38h-3.4V6.31Z"/><path class="b" d="M96.9.28,99,2.42V6.61L98,7.69l1.7,1.7v4.9l-2.11,2.09H84.87V.28ZM88.25,6.61h7l.35-.35V4l-.35-.35h-7Zm0,6.37h7.64l.34-.35V10.35l-.29-.29H88.25Z"/><path class="b" d="M105.32,3V16.38H102V3Z"/><path class="b" d="M107.62,6.31V3h14.9l-1.68,3.36H116V16.38h-3.4V6.31Z"/><path class="b" d="M124.82,5.09,126.92,3h10.44l2.14,2.14V9.2l-2.14,2.14h-9.18V13h9.89l1.68,3.38H127l-2.14-2.16ZM128.18,8h7.94V6.33h-7.94Z"/></g><g class="c"><path class="d" d="M17,2,15.36,5.35H5.4v3h6.3v3.4H5.37v6.35H2V2Z"/><path class="d" d="M21.45,4.64h7.78L27.55,8H23.08l-.41.41v9.66H19.34V6.78Z"/><path class="d" d="M31.53,6.78l2.09-2.14H44l2.14,2.14V16l-2.09,2.07H33.62l-2.09-2.16Zm3.7,7.89h7.24l.3-.3v-6l-.3-.3H35.23l-.35.34v6Z"/><path class="d" d="M59.68,14.69l.34-.37v-1a.94.94,0,0,0-.16-.14A.79.79,0,0,1,59.7,13H50.82l-2.09-2.14V6.78l2.09-2.14H63.68L62,8H52.46l-.35.36v1a1.31,1.31,0,0,0,.16.13.89.89,0,0,1,.16.17h8.83l2.14,2.13V16l-2.14,2.12H48.45l1.66-3.38Z"/><path class="d" d="M66,8V4.64h14.9L79.2,8H74.37V18.07H71V8Z"/><path class="d" d="M95.21,2l2.14,2.14V8.3L96.27,9.38l1.7,1.7V16l-2.11,2.09H83.18V2ZM86.56,8.3h7L94,8V5.72l-.35-.35h-7Zm0,6.37H94.2l.34-.35V12l-.29-.3H86.56Z"/><path class="d" d="M103.63,4.64V18.07h-3.36V4.64Z"/><path class="d" d="M105.93,8V4.64h14.9L119.15,8h-4.83V18.07h-3.4V8Z"/><path class="d" d="M123.13,6.78l2.1-2.14h10.44l2.14,2.14v4.11L135.67,13h-9.18v1.66h9.89l1.68,3.38H125.27l-2.14-2.16Zm3.36,2.87h7.94V8h-7.94Z"/></g></svg>