<svg xmlns="http://www.w3.org/2000/svg" viewBox="0 0 120 16.76"><defs><style>.a{opacity:0.5;}.b{fill:#e2a01b;}.c{fill:#fff;}</style></defs><g class="a"><path class="b" d="M11.42,12.54c-1.34,2.54-2.81,3.8-4.4,3.8a2.44,2.44,0,0,1-2-.92A3.69,3.69,0,0,1,4.27,13,18.25,18.25,0,0,1,5.52,7.68a17.9,17.9,0,0,0,1.25-5,1.63,1.63,0,0,0-.37-1.1,1.2,1.2,0,0,0-.94-.44A2.31,2.31,0,0,0,3.74,2.15,3.38,3.38,0,0,0,2.89,4.3a2.75,2.75,0,0,0,.76,1.75c.21.26.32.43.32.53s-.16.36-.49.75-.6.59-.83.59a1.26,1.26,0,0,1-.84-.54,2.42,2.42,0,0,1-.47-1.61A5.93,5.93,0,0,1,2.86,1.83,4.4,4.4,0,0,1,6.22.06,3,3,0,0,1,8.56,1.2a4.27,4.27,0,0,1,.95,2.85A17,17,0,0,1,8.35,9.13a17.31,17.31,0,0,0-1.14,4.4,1.25,1.25,0,0,0,.27.84.9.9,0,0,0,.72.31c.65,0,1.3-.53,1.94-1.6a18.05,18.05,0,0,0,1.77-4.57L13,4.56A27.68,27.68,0,0,1,14.34.48c.05-.12.4-.22,1.05-.29A12.41,12.41,0,0,1,16.8.08c.29,0,.44.06.44.18L15.18,8.1a22.8,22.8,0,0,0-.88,5,1.94,1.94,0,0,0,.29,1.11.94.94,0,0,0,.79.41,3.51,3.51,0,0,0,2-1.2,10.11,10.11,0,0,0,2.13-3.05,9,9,0,0,0,.86-3.81,9.21,9.21,0,0,0-1-4.13,3,3,0,0,1-.28-.74c0-.32.31-.68.93-1.07A3.08,3.08,0,0,1,21.33.08c.25,0,.51.34.77,1a5.91,5.91,0,0,1,.39,2.13,14.8,14.8,0,0,1-1.39,6,16,16,0,0,1-3.43,5.08c-1.37,1.33-2.61,2-3.72,2a2.2,2.2,0,0,1-1.87-.95A4.7,4.7,0,0,1,11.42,12.54Z"/><path class="b" d="M31.31,13.6a13.32,13.32,0,0,1-2.56,2.07,4.78,4.78,0,0,1-2.5.67,3.28,3.28,0,0,1-2.47-1,3.58,3.58,0,0,1-.94-2.57A6.48,6.48,0,0,1,24.5,8.48a4.79,4.79,0,0,1,3.66-1.92,2.48,2.48,0,0,1,1.67.54,1.77,1.77,0,0,1,.63,1.41q0,2.33-4.94,3.78.45,2.19,2.34,2.19a2.8,2.8,0,0,0,1.42-.4,12.41,12.41,0,0,0,2-1.77Zm-5.88-2.08c1.91-.54,2.87-1.53,2.87-3q0-1.08-.78-1.08c-.5,0-1,.37-1.42,1.13A5.65,5.65,0,0,0,25.43,11.52Z"/><path class="b" d="M43.31,13.6a22.5,22.5,0,0,1-2.58,2.22,2.63,2.63,0,0,1-1.48.52c-1.18,0-1.74-1-1.67-3.13a11.76,11.76,0,0,1-2.07,2.37,3.11,3.11,0,0,1-2,.76,2,2,0,0,1-1.68-.93,3.67,3.67,0,0,1-.69-2.27,6.17,6.17,0,0,1,.92-3.21,7.6,7.6,0,0,1,2.38-2.47,4.9,4.9,0,0,1,2.56-1,2,2,0,0,1,2,1.3L41.3,6.54h.63l-1,3.29a14.3,14.3,0,0,0-.77,3.4c0,.64.23,1,.69,1a1.53,1.53,0,0,0,1-.47c.36-.31.85-.79,1.49-1.42Zm-8.22.62c.74,0,1.45-.64,2.11-1.92a7.64,7.64,0,0,0,1-3.53,1.57,1.57,0,0,0-.28-1,.92.92,0,0,0-.76-.36c-.74,0-1.45.64-2.12,1.91a7.69,7.69,0,0,0-1,3.52,1.53,1.53,0,0,0,.3,1A.93.93,0,0,0,35.09,14.22Z"/><path class="b" d="M49.76,13.6a15.82,15.82,0,0,1-2.44,2.07,3.63,3.63,0,0,1-2,.67,1.87,1.87,0,0,1-1.57-.81,3.54,3.54,0,0,1-.6-2.14,11.56,11.56,0,0,1,.58-3.09l.48-1.7-.87.05.36-1.77,1.07,0,1.06-3.5,3-.62L47.7,6.63l1.58-.09-.37,1.73-1.74.13-.75,2.52A7.77,7.77,0,0,0,46,13a1.36,1.36,0,0,0,.26.86.86.86,0,0,0,.69.34,2.08,2.08,0,0,0,1.13-.37,10.12,10.12,0,0,0,1.65-1.52Z"/><path class="b" d="M60.78,13.6q-2.66,2.76-4.38,2.76a1.65,1.65,0,0,1-1.26-.52,1.81,1.81,0,0,1-.5-1.32,10.62,10.62,0,0,1,1-3.79A6.14,6.14,0,0,0,56.22,9c0-.31-.14-.46-.44-.46a2.6,2.6,0,0,0-1.3.61,11.55,11.55,0,0,0-1.8,1.66,27.3,27.3,0,0,0-.39,5l-2.5.58a20.28,20.28,0,0,1-.15-2.56,20.49,20.49,0,0,1,.92-6.23,28.64,28.64,0,0,1,2.9-6.12c1-.4,1.83-.72,2.57-1A7.92,7.92,0,0,1,57.28.1c.19,0,.36.16.49.47A2.94,2.94,0,0,1,58,1.75a5.9,5.9,0,0,1-.73,2.64A23.07,23.07,0,0,1,55,7.87c1-.57,1.66-.94,2-1.09a2.42,2.42,0,0,1,1-.22,1.16,1.16,0,0,1,.93.41,1.57,1.57,0,0,1,.36,1.08,10,10,0,0,1-.81,3.14,10.85,10.85,0,0,0-.8,2.66.71.71,0,0,0,.15.44.46.46,0,0,0,.35.19c.48,0,1.36-.73,2.65-2.17ZM53,9q4-4.67,4-6.88c0-.45-.13-.67-.37-.67-.41,0-1,.74-1.77,2.21A23.37,23.37,0,0,0,53,9Z"/><path class="b" d="M69.17,13.6a13.32,13.32,0,0,1-2.56,2.07,4.8,4.8,0,0,1-2.5.67,3.28,3.28,0,0,1-2.47-1,3.58,3.58,0,0,1-.94-2.57,6.47,6.47,0,0,1,1.65-4.31A4.81,4.81,0,0,1,66,6.56a2.48,2.48,0,0,1,1.67.54,1.77,1.77,0,0,1,.63,1.41q0,2.33-4.94,3.78.45,2.19,2.34,2.19a2.8,2.8,0,0,0,1.42-.4,12.85,12.85,0,0,0,2-1.77Zm-5.88-2.08c1.91-.54,2.87-1.53,2.87-3q0-1.08-.78-1.08c-.5,0-1,.37-1.42,1.13A5.65,5.65,0,0,0,63.29,11.52Z"/><path class="b" d="M77.57,13.6q-2.82,2.76-4.35,2.76a1.42,1.42,0,0,1-1.15-.58,2.14,2.14,0,0,1-.47-1.43,8.74,8.74,0,0,1,1.69-4.24,6.27,6.27,0,0,1-1.82.59,12.64,12.64,0,0,1-2.29,2.9h-.26v-1a14.73,14.73,0,0,0,1.59-1.95,1.37,1.37,0,0,1-1-1.27,3.64,3.64,0,0,1,.59-1.85,1.8,1.8,0,0,1,1.62-1,.78.78,0,0,1,.88.89,6.34,6.34,0,0,1-.5,2Q74,9.25,75.38,6.6l1,0-1,2.87c-.44,1.22-.72,2-.84,2.48a4.16,4.16,0,0,0-.19,1.16,1.19,1.19,0,0,0,.21.75.72.72,0,0,0,.59.29,1.33,1.33,0,0,0,.78-.28c.25-.18.8-.69,1.66-1.52Z"/><path class="b" d="M84.35,10.05l-.52,1.23a3.53,3.53,0,0,1-.64,1.11,1.68,1.68,0,0,1-1,.2l-2.48-.09a1.45,1.45,0,0,0-.9.29.5.5,0,0,1-.28.11c-.22,0-.3-.08-.22-.24L79,11.21a1.53,1.53,0,0,1,.5-.73,2.56,2.56,0,0,1,1.14-.18h1.86a2.29,2.29,0,0,0,1.28-.23c.18-.15.3-.22.38-.22S84.41,9.92,84.35,10.05Z"/><path class="b" d="M108.11,13.6c-1.68,1.8-3.21,2.71-4.59,2.71a2.08,2.08,0,0,1-1.91-1.22,6.77,6.77,0,0,1-.66-3.24,20.38,20.38,0,0,1,.65-4.33,18.6,18.6,0,0,1,1.67-4.62l.65-1.17a13,13,0,0,0-2.19,3.05c-.57,1.1-1.25,2.65-2,4.63a40.14,40.14,0,0,1-1.79,4.06,13.24,13.24,0,0,1-1.16,1.75,3,3,0,0,1-1,.88,3.8,3.8,0,0,1-1.51.21c-.28,0-.42-.08-.42-.23s.05-.25.15-.71a20.69,20.69,0,0,0,.3-2.19c.11-1,.18-2.72.23-5.13a18.21,18.21,0,0,1,1-6.21c-.7.8-1.42,2.67-2.16,5.59l-.28,1.11Q92,13.1,90.46,14.71a4.21,4.21,0,0,1-2.94,1.6A2.39,2.39,0,0,1,86,15.75a1.66,1.66,0,0,1-.67-1.3,1.85,1.85,0,0,1,.81-1.25c.54-.47.88-.7,1-.7a.32.32,0,0,1,.32.17,4.68,4.68,0,0,1,.21.92,1.73,1.73,0,0,0,.37,1,.88.88,0,0,0,.64.23c.58,0,1.22-.58,1.91-1.73a19.87,19.87,0,0,0,1.92-5.36l.32-1.36a22.66,22.66,0,0,1,.78-2.65,11,11,0,0,1,1-2A6.49,6.49,0,0,1,95.73.22a2.79,2.79,0,0,1,.78-.16A10.88,10.88,0,0,1,97.65,0c.15,0,.23.09.23.26a5,5,0,0,1-.07.5,22.28,22.28,0,0,0-.22,3.16l0,3A24.94,24.94,0,0,1,97,13.27a16.19,16.19,0,0,0,1.73-3.7,38.14,38.14,0,0,1,3-6.36,12,12,0,0,1,1.54-2,3.54,3.54,0,0,1,1.25-1,11.32,11.32,0,0,1,2-.23c.2,0,.31.06.31.17a3.92,3.92,0,0,1-.37,1.06,28.74,28.74,0,0,0-1.63,5.34,26.5,26.5,0,0,0-.77,5.37c0,1.51.46,2.26,1.38,2.26.75,0,1.64-.64,2.68-1.91Z"/><path class="b" d="M116.5,13.6a14,14,0,0,1-2.56,2.07,4.84,4.84,0,0,1-2.51.67,3.25,3.25,0,0,1-2.46-1,3.54,3.54,0,0,1-.94-2.57,6.47,6.47,0,0,1,1.65-4.31,4.79,4.79,0,0,1,3.66-1.92A2.47,2.47,0,0,1,115,7.1a1.77,1.77,0,0,1,.63,1.41c0,1.55-1.64,2.81-4.94,3.78.3,1.46,1.08,2.19,2.35,2.19a2.79,2.79,0,0,0,1.41-.4,12.8,12.8,0,0,0,2-1.77Zm-5.89-2.08c1.92-.54,2.88-1.53,2.88-3,0-.72-.27-1.08-.79-1.08s-1,.37-1.41,1.13A5.65,5.65,0,0,0,110.61,11.52Z"/></g><g class="a"><path class="c" d="M10.79,12.94c-1.35,2.53-2.81,3.8-4.4,3.8a2.46,2.46,0,0,1-2-.92,3.69,3.69,0,0,1-.75-2.42A18.25,18.25,0,0,1,4.89,8.08,17.9,17.9,0,0,0,6.14,3a1.63,1.63,0,0,0-.37-1.1,1.17,1.17,0,0,0-.94-.44A2.32,2.32,0,0,0,3.11,2.54,3.43,3.43,0,0,0,2.26,4.7,2.75,2.75,0,0,0,3,6.45c.21.26.32.43.32.53a2.08,2.08,0,0,1-.49.75c-.32.39-.6.59-.83.59a1.24,1.24,0,0,1-.84-.54A2.36,2.36,0,0,1,.71,6.17,5.88,5.88,0,0,1,2.23,2.23,4.39,4.39,0,0,1,5.59.46,3,3,0,0,1,7.93,1.6a4.32,4.32,0,0,1,1,2.85A17.35,17.35,0,0,1,7.72,9.53a17.31,17.31,0,0,0-1.14,4.4,1.25,1.25,0,0,0,.27.84.93.93,0,0,0,.72.31c.65,0,1.3-.53,1.94-1.6a18.05,18.05,0,0,0,1.77-4.57L12.33,5A27.68,27.68,0,0,1,13.71.88c0-.13.4-.22,1-.3s1.12-.1,1.41-.1.44.06.44.18L14.55,8.5a22.8,22.8,0,0,0-.88,5A1.87,1.87,0,0,0,14,14.65a.93.93,0,0,0,.79.41,3.51,3.51,0,0,0,2-1.2,10,10,0,0,0,2.13-3.06A9,9,0,0,0,19.73,7a9.21,9.21,0,0,0-1-4.13,2.62,2.62,0,0,1-.28-.74c0-.32.31-.68.93-1.07A3,3,0,0,1,20.7.48c.25,0,.51.34.77,1a5.91,5.91,0,0,1,.38,2.13,14.78,14.78,0,0,1-1.38,6.05A16,16,0,0,1,17,14.75c-1.37,1.33-2.61,2-3.72,2a2.2,2.2,0,0,1-1.87-.95A4.7,4.7,0,0,1,10.79,12.94Z"/><path class="c" d="M30.68,14a13.32,13.32,0,0,1-2.56,2.07,4.8,4.8,0,0,1-2.5.67,3.28,3.28,0,0,1-2.47-1,3.58,3.58,0,0,1-.94-2.57,6.47,6.47,0,0,1,1.65-4.31A4.82,4.82,0,0,1,27.53,7a2.48,2.48,0,0,1,1.67.54,1.77,1.77,0,0,1,.63,1.41q0,2.33-4.94,3.78.45,2.19,2.34,2.19a2.8,2.8,0,0,0,1.42-.4,12.41,12.41,0,0,0,2-1.77ZM24.8,11.92c1.91-.54,2.87-1.53,2.87-3,0-.71-.26-1.07-.78-1.07s-1,.37-1.42,1.13A5.65,5.65,0,0,0,24.8,11.92Z"/><path class="c" d="M42.68,14a22.5,22.5,0,0,1-2.58,2.22,2.63,2.63,0,0,1-1.48.52c-1.18,0-1.74-1-1.67-3.13A11.76,11.76,0,0,1,34.88,16a3.11,3.11,0,0,1-2,.76,2,2,0,0,1-1.68-.93,3.67,3.67,0,0,1-.69-2.27,6.17,6.17,0,0,1,.92-3.21,7.6,7.6,0,0,1,2.38-2.47,4.87,4.87,0,0,1,2.56-1,2,2,0,0,1,2,1.29l2.3-1.26h.63l-1,3.29a14.3,14.3,0,0,0-.77,3.4q0,1,.69,1a1.51,1.51,0,0,0,1-.46c.36-.31.85-.79,1.49-1.42Zm-8.22.62c.74,0,1.45-.64,2.11-1.92a7.76,7.76,0,0,0,1-3.53,1.57,1.57,0,0,0-.28-1,.92.92,0,0,0-.76-.36c-.75,0-1.46.64-2.13,1.91a7.67,7.67,0,0,0-1,3.52,1.53,1.53,0,0,0,.3,1A.93.93,0,0,0,34.46,14.62Z"/><path class="c" d="M49.13,14a15.82,15.82,0,0,1-2.44,2.07,3.63,3.63,0,0,1-2,.67,1.87,1.87,0,0,1-1.57-.81,3.54,3.54,0,0,1-.6-2.14,11.17,11.17,0,0,1,.58-3.09L43.6,9l-.86.05.36-1.77,1.07,0,1.06-3.51,3-.61L47.06,7l1.59-.09-.37,1.73-1.74.13-.75,2.52a7.77,7.77,0,0,0-.39,2.08,1.36,1.36,0,0,0,.26.86.85.85,0,0,0,.68.33,2.1,2.1,0,0,0,1.14-.36,10.55,10.55,0,0,0,1.65-1.52Z"/><path class="c" d="M60.15,14q-2.65,2.76-4.38,2.76a1.65,1.65,0,0,1-1.26-.52,1.81,1.81,0,0,1-.5-1.32,10.71,10.71,0,0,1,1-3.8,6.11,6.11,0,0,0,.55-1.72c0-.31-.15-.47-.44-.47a2.65,2.65,0,0,0-1.3.62,11.08,11.08,0,0,0-1.8,1.66,27.3,27.3,0,0,0-.39,5l-2.5.58A20.28,20.28,0,0,1,49,14.2,20.49,20.49,0,0,1,49.93,8a28,28,0,0,1,2.9-6.12c1-.4,1.83-.72,2.56-1A8.21,8.21,0,0,1,56.65.5c.19,0,.36.16.49.47a2.94,2.94,0,0,1,.2,1.18,5.93,5.93,0,0,1-.73,2.64,23.07,23.07,0,0,1-2.29,3.48c1-.57,1.66-.94,2-1.09a2.42,2.42,0,0,1,1-.22,1.13,1.13,0,0,1,.93.41,1.57,1.57,0,0,1,.36,1.08,10,10,0,0,1-.81,3.14,10.85,10.85,0,0,0-.8,2.66.66.66,0,0,0,.15.43.45.45,0,0,0,.35.2c.48,0,1.36-.73,2.65-2.17ZM52.37,9.4q4-4.67,4-6.88c0-.45-.13-.67-.37-.67-.42,0-1,.74-1.77,2.21A22.9,22.9,0,0,0,52.37,9.4Z"/><path class="c" d="M68.54,14A13.63,13.63,0,0,1,66,16.07a4.81,4.81,0,0,1-2.51.67,3.26,3.26,0,0,1-2.46-1,3.54,3.54,0,0,1-.94-2.57,6.47,6.47,0,0,1,1.65-4.31A4.79,4.79,0,0,1,65.38,7a2.49,2.49,0,0,1,1.68.54,1.77,1.77,0,0,1,.63,1.41q0,2.33-4.95,3.78c.3,1.46,1.09,2.19,2.35,2.19a2.8,2.8,0,0,0,1.42-.4,12.85,12.85,0,0,0,2-1.77Zm-5.89-2.08c1.92-.54,2.88-1.53,2.88-3,0-.71-.26-1.07-.79-1.07s-1,.37-1.41,1.13A5.65,5.65,0,0,0,62.65,11.92Z"/><path class="c" d="M76.94,14q-2.82,2.76-4.35,2.76a1.42,1.42,0,0,1-1.15-.58A2.14,2.14,0,0,1,71,14.75a8.74,8.74,0,0,1,1.69-4.24,6.27,6.27,0,0,1-1.82.59A12.64,12.64,0,0,1,68.55,14h-.26V13a15,15,0,0,0,1.59-2,1.35,1.35,0,0,1-1-1.26,3.64,3.64,0,0,1,.59-1.85,1.79,1.79,0,0,1,1.62-1,.78.78,0,0,1,.88.89,6.15,6.15,0,0,1-.51,2c1.25-.14,2.33-1.09,3.26-2.86l1,0-1,2.87c-.44,1.22-.72,2-.84,2.48a4.1,4.1,0,0,0-.19,1.16,1.19,1.19,0,0,0,.21.75.72.72,0,0,0,.59.28,1.32,1.32,0,0,0,.78-.27c.25-.18.8-.69,1.66-1.52Z"/><path class="c" d="M83.72,10.45l-.52,1.22a3.5,3.5,0,0,1-.64,1.12,1.68,1.68,0,0,1-1,.2l-2.48-.09a1.45,1.45,0,0,0-.9.29.5.5,0,0,1-.28.11c-.23,0-.3-.08-.23-.24l.62-1.45a1.53,1.53,0,0,1,.5-.73A2.56,2.56,0,0,1,80,10.7h1.85a2.24,2.24,0,0,0,1.28-.23.78.78,0,0,1,.39-.22C83.7,10.25,83.78,10.32,83.72,10.45Z"/><path class="c" d="M107.48,14c-1.68,1.8-3.21,2.71-4.59,2.71A2.08,2.08,0,0,1,101,15.49a6.8,6.8,0,0,1-.66-3.24A20.38,20.38,0,0,1,101,7.92a18.21,18.21,0,0,1,1.67-4.62l.65-1.17a13,13,0,0,0-2.19,3.05c-.57,1.1-1.25,2.65-2,4.63a39.66,39.66,0,0,1-1.79,4,12.78,12.78,0,0,1-1.16,1.76,3.08,3.08,0,0,1-1,.88,3.8,3.8,0,0,1-1.51.21c-.28,0-.42-.08-.42-.23s0-.25.15-.71a20.69,20.69,0,0,0,.3-2.19c.11-1,.18-2.72.22-5.13a18.44,18.44,0,0,1,1.06-6.21c-.7.8-1.42,2.67-2.16,5.59l-.28,1.1C91.71,12,90.82,14,89.83,15.11a4.21,4.21,0,0,1-2.94,1.6,2.35,2.35,0,0,1-1.56-.57,1.63,1.63,0,0,1-.67-1.29,1.85,1.85,0,0,1,.81-1.25,2.71,2.71,0,0,1,1-.7.32.32,0,0,1,.32.17A5,5,0,0,1,87,14a1.8,1.8,0,0,0,.38,1,.88.88,0,0,0,.64.23c.58,0,1.22-.58,1.91-1.73a19.83,19.83,0,0,0,1.92-5.37l.32-1.35A22.66,22.66,0,0,1,93,4.11a11.57,11.57,0,0,1,1-2A7.2,7.2,0,0,1,95.09.62a2.62,2.62,0,0,1,.79-.16A10.88,10.88,0,0,1,97,.4c.15,0,.23.09.23.26a3.54,3.54,0,0,1-.08.5A23.85,23.85,0,0,0,97,4.32l0,3a24.94,24.94,0,0,1-.63,6.34A16.9,16.9,0,0,0,98.09,10a38.14,38.14,0,0,1,3-6.36,12,12,0,0,1,1.54-2,3.54,3.54,0,0,1,1.25-1,11.23,11.23,0,0,1,2-.23c.2,0,.3.06.3.17a3.76,3.76,0,0,1-.36,1.06A28.74,28.74,0,0,0,104.19,7a26.5,26.5,0,0,0-.77,5.37c0,1.5.46,2.26,1.38,2.26.75,0,1.64-.64,2.68-1.91Z"/><path class="c" d="M115.87,14a13.65,13.65,0,0,1-2.57,2.07,4.78,4.78,0,0,1-2.5.67,3.28,3.28,0,0,1-2.47-1,3.57,3.57,0,0,1-.93-2.57,6.47,6.47,0,0,1,1.65-4.31A4.79,4.79,0,0,1,112.71,7a2.47,2.47,0,0,1,1.67.54A1.77,1.77,0,0,1,115,8.91q0,2.33-4.94,3.78c.3,1.46,1.08,2.19,2.35,2.19a2.79,2.79,0,0,0,1.41-.4,12.8,12.8,0,0,0,2-1.77ZM110,11.92c1.92-.54,2.88-1.53,2.88-3,0-.71-.27-1.07-.79-1.07s-1,.37-1.42,1.13A5.75,5.75,0,0,0,110,11.92Z"/></g></svg>